<?xml version="1.0" encoding="iso-8859-1"?>
<!-- Generator: Adobe Illustrator 17.0.0, SVG Export Plug-In . SVG Version: 6.00 Build 0)  -->
<!DOCTYPE svg PUBLIC "-//W3C//DTD SVG 1.1//EN" "http://www.w3.org/Graphics/SVG/1.1/DTD/svg11.dtd">
<svg version="1.1" id="Layer_1" xmlns="http://www.w3.org/2000/svg" xmlns:xlink="http://www.w3.org/1999/xlink" x="0px" y="0px"
	 width="16px" height="16px" viewBox="0 0 16 16" style="enable-background:new 0 0 16 16;" xml:space="preserve">
<path style="fill:#FFFFFF;" d="M6.368,5.071l2.752,5.606H7.469L5.542,6.748L6.368,5.071z"/>
<path style="fill:#FFFFFF;" d="M3.302,5.058l0.019,0.013l2.726,5.6l-0.006,0.006H4.416L2.49,6.761L3.302,5.058z"/>
<path style="fill:#FFFFFF;" d="M9.421,5.058l2.746,5.619l-1.619,0.006L8.614,6.767L9.421,5.058z"/>
<path style="fill:#FFFFFF;" d="M1.485,8.789l0.934,1.888l-1.862,0.006L1.485,8.789z"/>
<path style="fill:#FFFFFF;" d="M15.366,9.865c0,0.449-0.364,0.812-0.812,0.812c-0.253,0-1.414,0.03-1.18,0.016
	c0.513-0.032,0.368-0.632,0.368-0.828c0-0.449,0.364-0.812,0.812-0.812C15.002,9.053,15.366,9.416,15.366,9.865z"/>
<path style="fill:#FFFFFF;" d="M15.369,5.863c-0.008-0.448-0.378-0.805-0.827-0.797c-0.253,0.005-1.414-0.004-1.18,0.006
	c0.514,0.022,0.379,0.625,0.383,0.821c0.008,0.448,0.378,0.805,0.827,0.797C15.021,6.682,15.378,6.312,15.369,5.863z"/>
</svg>
