<?xml version="1.0" encoding="iso-8859-1"?>
<!-- Generator: Adobe Illustrator 17.0.0, SVG Export Plug-In . SVG Version: 6.00 Build 0)  -->
<!DOCTYPE svg PUBLIC "-//W3C//DTD SVG 1.1//EN" "http://www.w3.org/Graphics/SVG/1.1/DTD/svg11.dtd">
<svg version="1.1" id="Layer_1" xmlns="http://www.w3.org/2000/svg" xmlns:xlink="http://www.w3.org/1999/xlink" x="0px" y="0px"
	 width="612px" height="792px" viewBox="0 0 612 792" style="enable-background:new 0 0 612 792;" xml:space="preserve">
<path style="fill:#FFFFFF;" d="M284.551,192.98l49.131,100.09h-29.479l-34.392-70.154L284.551,192.98z"/>
<path style="fill:#FFFFFF;" d="M229.822,192.752l0.343,0.229l48.674,99.976l-0.114,0.114h-29.021l-34.392-69.926L229.822,192.752z"
	/>
<path style="fill:#FFFFFF;" d="M339.052,192.752l49.017,100.318l-28.907,0.114l-34.506-69.926L339.052,192.752z"/>
<path style="fill:#FFFFFF;" d="M197.373,259.364l16.682,33.706l-33.249,0.114L197.373,259.364z"/>
<path style="fill:#FFFFFF;" d="M445.195,278.57c0,8.008-6.492,14.5-14.5,14.5c-4.51,0-25.238,0.54-21.063,0.284
	c9.167-0.563,6.563-11.286,6.563-14.784c0-8.008,6.492-14.5,14.5-14.5S445.195,270.562,445.195,278.57z"/>
<path style="fill:#FFFFFF;" d="M445.259,207.122c-0.147-8.007-6.756-14.379-14.763-14.232c-4.51,0.083-25.244-0.078-21.064,0.102
	c9.175,0.395,6.768,11.164,6.832,14.662c0.147,8.007,6.756,14.379,14.763,14.232C439.033,221.738,445.405,215.129,445.259,207.122z"
	/>
</svg>
